<svg viewBox="0 0 315.39 229.41" xmlns="http://www.w3.org/2000/svg"><defs><style>.prefix__cls-1{fill:none;stroke:#fff;stroke-miterlimit:10;stroke-width:2.83px}</style></defs><g fill="#fff"><path d="M218.31 17.63a27.2 27.2 0 00-3-10.36 14.19 14.19 0 00-8.07-6.81c-4.8-1.4-10.16.63-13.63 4.24-3.47 3.61-5.25 8.55-6 13.49-.75 4.94-.59 10-.66 15a150.63 150.63 0 01-1.71 20.09c-1 6.76-2.46 13.52-2.12 20.35 0 .54.07 1.09.11 1.64a47.62 47.62 0 00-14.57-7.31 39.56 39.56 0 00-32.27 4.92 20.71 20.71 0 00-4.37 3.7c0-.22-.05-.45-.08-.67q-2.7-21.21-3.91-42.58c-.38-6.84-.66-13.75-2.24-20.42a18.2 18.2 0 00-2.65-6.52c-2.69-3.7-7.47-5.3-12-5.63-2.8-.2-6 .17-7.72 2.37l1.11-.83c-4.68 3.39-7.26 9.07-8.2 14.77-.94 5.7-.42 11.52 0 17.29.73 10.71 1 21.44 1.32 32.18a135.8 135.8 0 00.52 22v2.89l1 37.18a5.61 5.61 0 00.41 2.31 1.87 1.87 0 00.13.4 2.86 2.86 0 001.21 1.15 9.43 9.43 0 003.89 1.16 63 63 0 007.83 1.55c4 .62 8 1.23 12 1.48a32.15 32.15 0 005.38.52q29.37 1.1 58.77-.26c8.56-.4 17.2-1 25.43-3.34a1.88 1.88 0 001.82-2.18l.15-12a74.22 74.22 0 00-.24-8.44q2.05-40.25 2.71-80.55a99.21 99.21 0 00-.35-12.78z"/><path d="M314.59 140.92c-12.25-14.46-112.61-18.94-112.61-18.94l6.29 2.19 4.33.17 2.61-.67c46 2.83 65.27 7.18 65.27 7.18 24.73 4.95 23 10.49 23 10.49-.38 6.51-20.36 10-20.36 10-3.32.82-6.92 1.57-10.72 2.27-13.67 2.47-30.61 4.14-47.23 5.26a1154 1154 0 01-119.38.91c-21.14-1.06-44.84-2.91-62.84-6.17-3.81-.7-7.4-1.45-10.72-2.27 0 0-20-3.47-20.36-10 0 0-1.72-5.54 23-10.49 0 0 19.37-4.39 65.31-7.18l2.61.67 4.32-.17 6.29-2.19S13.05 126.46.79 140.92a3 3 0 00-.39 3.46c.05.09.12.18.18.28l.17.22c2.16 2.72 9.09 7.38 31.2 11.44 0 0 30.66 5.44 78.91 8.29 1.54.08 48.93 2.47 93.65 0 48.26-2.85 78.93-8.29 78.93-8.29 22.11-4.06 29-8.72 31.2-11.44l.16-.22.19-.28a3 3 0 00-.4-3.46z"/><path d="M282.88 138.59c-.68-10.07-66.73-13.47-66.73-13.47l-.6.46c58.43 3.53 59 12.44 59 12.44 0 3.11-10.29 6-16.16 7.46-16.32 3.7-44.48 5.47-66.74 6.31-42.79 1.4-86.95-.91-88.06-1-17.25-1-34.91-2.7-46.56-5.34-5.87-1.42-16.15-4.35-16.15-7.46 0 0 .54-8.91 59-12.44l-.59-.46s-66.05 3.4-66.74 13.47c0 0-2.8 8 43.37 12.76 0 0 13.4 1.39 31.81 2.68 7.06.47 47.18 2.86 101.13-.08 17.84-1.27 30.7-2.6 30.7-2.6 46.13-4.77 43.32-12.73 43.32-12.73z"/><path d="M252.54 135.28c-1.11-5.92-36.3-8.49-36.3-8.49l-3.23.83 2.54.16v-.32c16.65 1.24 23.42 3.32 23.42 3.32 8.21 2.12 7.06 4.29 7.06 4.29.08 1.85-4.21 3.4-11 4.69a460.71 460.71 0 01-49.53 4.44c-30 .78-54.55 0-55.52 0a461.06 461.06 0 01-49.55-4.44c-6.82-1.29-11.11-2.84-11-4.69 0 0-1.16-2.17 7.06-4.29 0 0 6.77-2.08 23.41-3.32v.29l2.55-.16-3.24-.83s-35.18 2.57-36.3 8.49c0 0-3.57 7.72 57 10.92.64 0 44 1.57 75.76 0 60.45-3.17 56.87-10.89 56.87-10.89z"/><path d="M227 133.76c-.44-3.09-11.45-4.31-11.45-4.31l-.6.56c5.91.63 7.67 2.16 7.67 2.16.82.6.64 1.12.64 1.12.05 1.58-4.38 2.85-11.12 3.87a338.31 338.31 0 01-33.84 2.7c-23.81.56-38.81.08-40.95 0a341.85 341.85 0 01-34.11-2.7c-6.73-1-11.17-2.29-11.11-3.87 0 0-.18-.52.63-1.12 0 0 1.76-1.53 7.67-2.16l-.6-.56s-11 1.22-11.44 4.31c0 0-4.07 5.4 46.18 7.83 7.92.29 24.19.56 52.28-.32 43.87-2.56 40.15-7.51 40.15-7.51zm-192.3 56.7a.88.88 0 00-.91-.52c-.55.12-.69.83-.71 1.4-.13 4.09-.27 8.19-.3 12.29-.07 7.18.16 14.37.7 21.53 0 .63.23 1.42.86 1.52a1 1 0 001-.56 2.81 2.81 0 00.23-1.15c.46-9.05-1.24-18.11-.59-27.15l3.77 14.64c.46 1.73.91 3.46 1.51 5.14a18.06 18.06 0 011.28 4.43c.13 1.56-.25 3.22.43 4.62a1.29 1.29 0 00.92.8 1.07 1.07 0 001-.64 3.25 3.25 0 00.23-1.24q.81-15.75.34-31.52c0-1.49-.09-3-.28-4.48-.07-.58-.45-1.35-1-1.15-.35.12-.45.54-.5.9a44.75 44.75 0 00-.39 8.34c.09 1.79.28 3.57.37 5.36a94.64 94.64 0 01-.47 12.82l-3.3-10.74-2.3-7.46-.93-3-.47-1.53-.23-.74a2.06 2.06 0 01-.15-.64c0-.16.06-.32.06-.48a1.78 1.78 0 00-.17-.79zm15.18 15.9c.11 2.13.34 4.26.39 6.39.13 4.68-.56 9.39 0 14 .08.7.41 1.59 1.11 1.54.7-.05.9-.91.94-1.58a97 97 0 00-.11-13.53l5.53-.72a.85.85 0 00.6-.25.6.6 0 00.06-.49 1.63 1.63 0 00-1-1.1 4.32 4.32 0 00-1.56-.2 28.77 28.77 0 00-3.71.24 148 148 0 01.35-18.12l5.85-.35a.84.84 0 00.64-.22c.28-.38-.2-.86-.63-1.05a10.66 10.66 0 00-4.4-.78c-.75 0-1.5 0-2.25.11a1.18 1.18 0 00-.76.2.91.91 0 00-.21.55c-.2 1.58-.32 3.19-.45 4.78-.13 1.59-.25 3.32-.32 5a59.55 59.55 0 000 5c-.08.19-.07.39-.07.58zm15.73-14.9c0-.62-.12-1.41-.72-1.56a1 1 0 00-1 .52 2.85 2.85 0 00-.26 1.16c-.54 7.59-.17 15.21-.55 22.8-.21 4.17-.65 8.38.07 12.48a1.91 1.91 0 00.36 1 .7.7 0 00.92.19 1 1 0 00.3-.83c.05-.78.1-1.57.14-2.35.07-1.1.12-2.2.18-3.3.06-1.1.1-2.22.14-3.32.04-1.1.09-2.2.12-3.31.03-1.11.07-2.21.1-3.32l.06-3.3v-11.6c0-.56-.06-1.09 0-1.62a3.58 3.58 0 01.09-.45 5.93 5.93 0 000-.73v-1.65c.04-.29.05-.54.05-.81zm7.82 1.19a2.43 2.43 0 00-.36-1.11 1 1 0 00-1.68.07 1.68 1.68 0 00-.09.67l.07 10.1c0 1.25 0 2.49-.07 3.73-.09 1.43-.31 2.85-.45 4.28-.12 1.27-.18 2.55-.21 3.82a95.59 95.59 0 00.42 11.72 2.72 2.72 0 00.25 1.09 1 1 0 00.92.56c.7-.07.88-1 .88-1.7v-25.35c2.67 7.07 3.86 14.63 6.71 21.62a6.72 6.72 0 01.59 2 10.68 10.68 0 000 2c.17.66 1 1.23 1.53.83a1.52 1.52 0 00.39-1.29l-.29-11.42c0-1.48-.07-3-.17-4.44-.1-1.44-.25-3-.35-4.55a57.27 57.27 0 01.6-12.68 2.77 2.77 0 00-.07-1.71c-.26-.52-1-.79-1.44-.36a1.35 1.35 0 00-.25.79 132.64 132.64 0 00-.18 23.41c-.63-1.39-1.21-2.8-1.75-4.23-.54-1.43-1-2.87-1.51-4.32-.51-1.45-.92-2.9-1.35-4.36-.43-1.46-.84-2.94-1.25-4.41-.18-.65-.41-1.3-.53-2-.12-.7-.23-1.55-.35-2.33zm17.32.61a2.55 2.55 0 000-1c-.25-.81-1.19-1.13-2-1.35a.62.62 0 00-.52 0 .61.61 0 00-.19.42c-1.61 11.06.14 22.31-.05 33.48a5.83 5.83 0 00.13 1.72 2 2 0 001 1.32.73.73 0 00.77-.07 1 1 0 00.18-.58 93.43 93.43 0 00.36-14.09c-.09-1.28-.24-2.55-.35-3.82-.1-1.12-.17-2.24-.22-3.36-.05-1.12-.06-2.26-.05-3.38.01-1.12.05-2.27.12-3.4a11.94 11.94 0 01.33-2.6 17.45 17.45 0 00.43-2.87zm9.81-2.8c.54.11 1 .45 1.54.59.54.14 1.12.06 1.67.16.55.1 1.13.45 1.18 1 .05.55-.7 1.16-1.37 1.21a19.88 19.88 0 00-2 0q-.45 6.69-.29 13.4c0 1.7.1 3.4.1 5.1a114.07 114.07 0 01-1.27 14.16c-.1.76-.29 1.63-1 2a.6.6 0 01-.78-.13.62.62 0 01-.08-.36c-.74-11.47 1.22-23 .91-34.46a8.27 8.27 0 01-2.33 0 2.74 2.74 0 01-1.89-1.24c-.17-.32-.23-.78.08-1a1 1 0 01.6-.09l2.41.22.58.05a2.56 2.56 0 00.55 0c.22 0 .3-.34.49-.46a1.27 1.27 0 01.9-.15zm10.33 17.21l3.17.07a3.45 3.45 0 011.24.18 1.15 1.15 0 01.76.92 1.17 1.17 0 01-.84 1.11 3.36 3.36 0 01-1.48.08l-3-.28c-.34 5.25-.42 10.53-.25 15.8a44.6 44.6 0 015.4.85 1.08 1.08 0 01.81.47.7.7 0 01-.33.85 1.68 1.68 0 01-1 .18c-1.58-.08-3.13-.82-4.7-.55-.83.14-1.88.49-2.38-.19a1.74 1.74 0 01-.24-.78 25 25 0 01-.11-2.87v-11.92c0-1.34 0-2.67.12-4s.35-2.75.49-4.12.2-3 .26-4.53c.13-3 .36-6.08.68-9.1 0-.27.08-.58.32-.71a.88.88 0 01.36-.06l4.74-.19a3.15 3.15 0 011.7.26 1.07 1.07 0 01.45 1.47c-.31.41-.91.41-1.42.41a11.14 11.14 0 00-3.76.52c-.27.09-.2.34-.21.58v1l-.06 2a268.112 268.112 0 01-.42 8c-.09 1.32-.19 2.67-.29 4 .01.21 0 .34-.01.55zm35 18.55a39.54 39.54 0 00-2.65-7.76c-1.41-2.76-3.49-5.23-4.26-8.23 4-3.89 6.71-9.52 5.87-15.05a7.4 7.4 0 00-.76-2.43 6.66 6.66 0 00-3.9-2.92 19.05 19.05 0 00-4.94-.68 1.19 1.19 0 00.08 1.3 2.44 2.44 0 00.54.57c.33.27.32.49.32.9v5.52c0 1.23-.07 2.47-.13 3.7s-.11 2.46-.17 3.68c-.06 1.22-.13 2.47-.19 3.71-.06 1.24-.12 2.46-.16 3.69-.04 1.23-.09 2.46-.11 3.68-.02 1.22 0 2.47 0 3.7s.05 2.46.12 3.68c.07 1.22.15 2.44.28 3.65.05.52.2 1.14.7 1.27a.86.86 0 00.9-.45 2.32 2.32 0 00.26-1 43.39 43.39 0 000-5.1l-.48-10.48c3.57 4.55 4.71 10.5 7.39 15.62.22.42.62.9 1.06.73.44-.17.35-.83.23-1.3zm-8.59-18.56c.11-1.31.21-2.63.28-3.95.07-1.32.14-2.65.19-4 .05-1.35.07-2.64.08-4v-3a8.51 8.51 0 010-1c0-.15.08-.14.23-.17l.4-.05a3.29 3.29 0 01.83 0 3.7 3.7 0 011.51.57 2.27 2.27 0 01.79.84 3.14 3.14 0 01.22 1.25 18.18 18.18 0 01-2.08 9.86 33.55 33.55 0 00-2.48 4c-.03-.03.02-.19.03-.35zm22.28 17.49q-.55-8-1.13-15.94c-.13-1.88-.26-3.76-.48-5.63-.22-1.87-.57-3.95-.86-5.93a51.63 51.63 0 01-.57-5.95c0-.5.05-1 0-1.49a5 5 0 00-.35-1.52c-.18-.44-.52-.92-1-.9-.48.02-.88.77-1 1.37q-2 11.21-3.15 22.52a5.65 5.65 0 01-.41 1.87 1.44 1.44 0 00-.22.68 1.8 1.8 0 00.1.4 3 3 0 010 1.08l-1.2 11.32a1.29 1.29 0 001.79-.36 3.68 3.68 0 00.55-1.94l.9-9.4a4 4 0 00.6-.13l1.26-.35a2.66 2.66 0 011.9-.06l.32.17c.24 3.71.55 7.41 1.09 11.08a1.28 1.28 0 00.44 1 .89.89 0 001.2-.44 2.5 2.5 0 00.22-1.45zm-5.45-11.94c-.4.11-.79.26-1.2.34h-.16l.12-1.24a148.5 148.5 0 012.21-16.57c.84 5.75 1.11 11.57 1.47 17.38a5.44 5.44 0 00-2.44.09zm14.6-6.82a10.74 10.74 0 004.68-14.07 4.89 4.89 0 00-3.21-3 18.64 18.64 0 01-2.25-.23c-.39-.13-.74-.35-1.13-.47a1.008 1.008 0 00-1 1.75s.05 0 .08.07a3.77 3.77 0 00-.17 1.21l-.77 24.53c0 1.14-.07 2.29-.07 3.43 0 1.91.14 3.82.26 5.72v.14c-.07.67-.07 1.44.48 1.82a1.4 1.4 0 001.35 0 11.41 11.41 0 001.19-.76c1.53-1 3.69-1.06 4.69-2.57a5.45 5.45 0 00.66-2 31.39 31.39 0 00.59-4.62 15.68 15.68 0 00-1.63-7.44c-.79-1.58-2.02-3.14-3.75-3.51zm1.51-14.93a3.21 3.21 0 011.49 2.63 12.13 12.13 0 01-2.91 9.65c-.36.4-.75.79-1.1 1.21v-5.25c0-1.32.07-2.67.13-4s.18-2.65.26-4a2.94 2.94 0 000-.42 4.56 4.56 0 012.13.18zm1.49 29a4.29 4.29 0 01-1 2.66 4.63 4.63 0 01-1.76.95l-1.74.62c0-.31.06-.62.08-.93.1-1.33.18-2.66.24-4 .06-1.34.09-2.68.11-4 .02-1.32 0-2.67 0-4v-3.93h.22a3.41 3.41 0 012.55 1.67 8.25 8.25 0 011 3 28.9 28.9 0 01.27 7.96zm16.23-6a5.68 5.68 0 00-1.25-3 7.13 7.13 0 00-2.29-1.55c-.47-.23-.94-.45-1.42-.66-.48-.21-1.24-.52-1.87-.77l2-2.33a21.18 21.18 0 001.9-2.43 12.08 12.08 0 001.74-6.72c-.07-3.32-1.44-6.78-4.24-8.55a5 5 0 00-2-.79.93.93 0 00-.55 0 .6.6 0 00-.36.53 4.14 4.14 0 00-.11 1c0 .69-.05 1.39-.07 2.09l-.14 4.24c-.05 1.42-.1 2.83-.14 4.25l-.14 4.24v.52c0 1.29-.09 2.58-.13 3.86a2 2 0 00-.49.94.88.88 0 00.43.89c-.18 5.58-.33 11.16-.2 16.74-.43.42-.77.94-.55 1.46a1 1 0 00.68.52c.34.64 1.4.38 1.74-.25a2.59 2.59 0 00.14-.42 19.51 19.51 0 005.6-5.81 12.46 12.46 0 001.72-8zm-4.72-23.17a5.38 5.38 0 01.95 1.53 10 10 0 01.53 2.44 13.75 13.75 0 01-.13 5.5c-.66 2.32-2.35 4.13-4 5.92q-.12-8.43.6-16.84a5.45 5.45 0 012.05 1.45zm.34 31a18.45 18.45 0 01-3 3.14c0-1.89.32-3.78.41-5.68a46.58 46.58 0 00-.15-5c-.08-1.32-.14-2.64-.19-3.95h.27a6.45 6.45 0 013.8 1.18 2.74 2.74 0 01.79.8 3.09 3.09 0 01.37 1.5 12.76 12.76 0 01-2.31 8zm9.75-33.12a1.7 1.7 0 00-.28 1.26c.15 4.17-.26 8.34-.32 12.51-.11 7.18.81 14.37.38 21.54a8.17 8.17 0 00.05 2.21 2.54 2.54 0 001.19 1.77c1.14-1.05 1.24-2.79 1.25-4.34a87.87 87.87 0 00-.3-10.14c-.17-1.5-.41-3-.54-4.5-.13-1.5-.14-2.89-.15-4.34-.01-1.45 0-2.68 0-4 0-1.32.07-2.68.12-4 .05-1.32.11-2.65.21-4 .06-.85.21-1.7.24-2.56a1.6 1.6 0 00-.54-1.37 1.1 1.1 0 00-1.11-.21.81.81 0 00-.2.17zm11.29 7.29a49.17 49.17 0 01-.16 9.47 143.7 143.7 0 00.06 21.16c0 .46.25 1.06.7 1 .45-.06.44-.46.48-.79.7-5.46.06-11 .33-16.51.11-2.4.4-4.8.43-7.2 0-1.94-.14-3.87-.3-5.8l-.42-5.33 3.29-.23a2.31 2.31 0 001-.24.75.75 0 00.35-.9c-.15-.33-.58-.42-.95-.47l-2.69-.33a14.72 14.72 0 00-2.73-.16 14.14 14.14 0 00-3.55.85c-.45.15-1 .38-1.06.85a.92.92 0 00.68.94 2.82 2.82 0 001.26 0l1.49-.25.75-.13a1.34 1.34 0 01.56-.05c.17.05.18.16.17.32-.01.16 0 .48 0 .72a11.63 11.63 0 00.11 1.44 14.82 14.82 0 01.2 1.64zm31.62-8.28c0-.37-.13-.8-.47-1a.76.76 0 00-.91.34 2.19 2.19 0 00-.29 1c-.08.72-.16 1.43-.25 2.15a23.92 23.92 0 00-.09 2.81c0 1.28 0 2.55.05 3.83a43.89 43.89 0 01-.1 4.59c-.13 1.26-.37 2.5-.43 3.76a37.32 37.32 0 00.14 3.81c.05.93.07 1.87.08 2.81l-4.4.06h-.93c0-.91.05-1.83 0-2.74 0-1.68-.16-3.36-.19-5v-4.53l.12-4.73v-1.17a3.37 3.37 0 010-.55c0-.11.05-.2.06-.31a9.77 9.77 0 00-.07-1.07 10.84 10.84 0 010-1.14 13.44 13.44 0 01.37-2.52c-.64-.14-1.13-1-1.73-.76-.38.17-.44.66-.44 1.07l-.16 9.87c-.08 4.66-.15 9.33-.28 14a.85.85 0 00-.05 1.33c-.13 4.22-.3 8.45-.57 12.66a2.81 2.81 0 00.23 1.68 1 1 0 001.45.32 1.37 1.37 0 00.28-.91c.18-2.84.34-5.68.5-8.53.07-1.18.13-2.37.2-3.56 0-.42.05-.83.07-1.24h5.41a88.54 88.54 0 00.19 10.81 2.53 2.53 0 00.37 1.24.9.9 0 001.14.32c.4-.24.43-.8.41-1.27q-.61-15 .15-30.05a47.26 47.26 0 00.14-7.38zm13.6 12.98c-.13-1-.31-2-.54-3a33.61 33.61 0 00-1.67-5.27c-.35-.85-.74-1.69-1.15-2.52-.12-.22-.11-.57-.35-.7a1.2 1.2 0 00-1.1.14 7.38 7.38 0 00-2.73 4.09 35.21 35.21 0 00-2.26 12.87 57.92 57.92 0 00.51 13.41 16.6 16.6 0 001.9 6.36 2.38 2.38 0 001.41 1.22 2.74 2.74 0 001.17-.12l1.39-.35a2.9 2.9 0 00.72-.28c.49-.06.79-.57 1-1a20.76 20.76 0 001.13-5.91c.16-1.78.32-3.55.46-5.32a62.84 62.84 0 00.11-13.62zm-1.92 5.5c-.32 6 .07 12.14-1.59 17.92a6.82 6.82 0 00-.2.87 4.46 4.46 0 01-1.24.2 2.09 2.09 0 01-1.52-1 5 5 0 01-.61-1.77 42.56 42.56 0 01-.61-7.4 98.77 98.77 0 01.55-16.42 35.63 35.63 0 012.26-6.41c.07-.14.16-.3.32-.3s.23.11.31.22a12.73 12.73 0 011.88 4.73 26.77 26.77 0 01.6 6.05c-.01 1.11-.09 2.2-.15 3.31zm13.32 18.32a10.87 10.87 0 00-2.21.06 20.57 20.57 0 01-3.91.32h-.2a2.6 2.6 0 00.29-.85 49.87 49.87 0 00.81-12.07c-.16-2.86-.56-5.71-.49-8.57 0-1.39.17-2.78.26-4.16.12-2 .12-4 .08-6 0-1-.06-2-.1-3a14.16 14.16 0 00.1-1.95 1.1 1.1 0 00-.68-.9.71.71 0 00-.86.23 1.17 1.17 0 00-.12.62c-.09 11.73-.08 23.49-1 35.19a3 3 0 00.1 1.33 1.35 1.35 0 00.26.38 1.19 1.19 0 00-.25 1.1 1.37 1.37 0 001.06.72c2.12.48 4.27-.55 6.44-.65a3.12 3.12 0 001-.14.83.83 0 00.58-.77c-.09-.61-.7-.84-1.16-.89zm14.53-35.8c-.17-.67-1.08-.76-1.77-.72-1.34.07-2.69.11-4 .1l-2-.05c-.39 0-1-.19-1.31.2a1.36 1.36 0 00-.18.59c0 .34-.07.68-.11 1-.09.89-.18 1.77-.19 2.66 0 1.05.07 2.1.08 3.14 0 1.31-.06 2.63-.15 3.93l-.3 4.4c-.16 2.41-.33 4.82-.55 7.23a1.06 1.06 0 00-.21.11 1 1 0 00-.35.86 1.26 1.26 0 00.4.78c-.41 4.11-.9 8.26-.34 12.35a2.53 2.53 0 00.85 1.86c.89.6 2.05-.05 3.12-.21a25.78 25.78 0 013 .13c1 0 2.17-.59 2.26-1.6a.41.41 0 000-.29.54.54 0 00-.45-.17 42.89 42.89 0 00-6.7.29 91.69 91.69 0 01.32-11.95 9.2 9.2 0 013-.19 7 7 0 003-.37 2.58 2.58 0 001.67-2.31l-7.42.6c-.11-4.4.09-8.8.29-13.19.12-2.53.23-5.05.35-7.58l5.88-.26a3 3 0 001.3-.26 1 1 0 00.51-1.08zm10.58 9.33a.83.83 0 00.31.68.56.56 0 00.69-.2 1.59 1.59 0 00.25-.74 18 18 0 00.18-3.59 7.64 7.64 0 00-1-3.73 3.58 3.58 0 00-3.25-1.76 4.79 4.79 0 00-1.43.46 6.2 6.2 0 00-2.42 1.87 6.06 6.06 0 00-.94 2.44 15.57 15.57 0 00.06 5.23 10.44 10.44 0 00.85 3 14.52 14.52 0 001.32 2 26.46 26.46 0 014.67 9 15.53 15.53 0 01-.54 9.05 3.33 3.33 0 01-2 2.29 1 1 0 01-.59 0 1.1 1.1 0 01-.43-.34 6.46 6.46 0 01-1.2-4.34 20.71 20.71 0 00-.07-4.59 2 2 0 00-.76-1.33c-.45-.27-1.18-.06-1.24.46a1.57 1.57 0 00.14.66 6.51 6.51 0 010 2.64 17.74 17.74 0 00.06 4 7.27 7.27 0 001.6 4 3.37 3.37 0 004 .86c1.13-.64 1.59-2 2-3.25a35.26 35.26 0 00.94-3.53c.18-.91.29-1.84.4-2.76a16.44 16.44 0 00.1-4.9c-.79-4.39-4.9-7.44-6.49-11.62a13.87 13.87 0 01-.77-3.25c-.25-1.88-.18-4 1.1-5.4a2.56 2.56 0 012.06-.92 2 2 0 011.68 1.71c.17 1.22.29 2.45.44 3.68zm-260.06-7.63a.76.76 0 00-1-.22 1.13 1.13 0 00-.27.79c-.68 10.59-.49 21.22-.29 31.83v2.57a3.66 3.66 0 00.23 1.44 1.21 1.21 0 001.15.76c.82-.09 1.08-1.13 1.12-1.95.19-3.83 0-7.67-.12-11.51-.06-1.57-.11-3.14-.16-4.71-.05-1.57-.09-3.16-.13-4.73-.04-1.57-.07-3.17-.1-4.75s-.06-3.15-.08-4.73v-2.37a7.36 7.36 0 000-1.15c-.05-.27-.06-.56-.13-.82a1.18 1.18 0 00-.22-.45z"/><circle cx="183.25" cy="111.23" r="10.85" fill="#040707"/><circle cx="136.08" cy="109.15" r="20.39" fill="#040707"/><circle cx="136.08" cy="109.15" r="16.14" fill="#040707"/><circle class="prefix__cls-1" cx="136.08" cy="109.15" r="17.92"/><circle class="prefix__cls-1" cx="136.08" cy="109.15" r="11.14"/><circle class="prefix__cls-1" cx="136.08" cy="109.15" r="4.19"/></g></svg>